<svg xmlns="http://www.w3.org/2000/svg" viewBox="0 0 53.7 54.06"><defs><style>.cls-1{fill:#fff;}.cls-2{fill:none;}.cls-3{fill:#e50914;}</style></defs><title>achi_3</title><g id="Layer_2" data-name="Layer 2"><g id="Layer_1-2" data-name="Layer 1"><circle class="cls-1" cx="26.85" cy="26.85" r="26.85"/><path class="cls-2" d="M18.32,11.51a1.22,1.22,0,0,1-.39.14,1.37,1.37,0,0,1-1.36-1.1c0-.65,1.05-.78,1.21-1.66a2,2,0,0,0-.62-1.57,2.65,2.65,0,0,0-2.31-.88c-1.39.23-2.31,2-2.46,3.34-.33,3,2.82,5.72,4.51,7.19,1.93,1.67,3.44,2.31,4.64,4.28-.35-.61-.69-1.25-1-1.94A25.74,25.74,0,0,1,18.32,11.51Z"/><path class="cls-2" d="M38.85,6.44a2.65,2.65,0,0,0-2.31.88,2,2,0,0,0-.62,1.57c.16.88,1.21,1,1.21,1.66a1.36,1.36,0,0,1-1.36,1.1.76.76,0,0,1-.32-.11,25.71,25.71,0,0,1-2.21,7.77c-.22.47-.45.92-.68,1.36,1.13-1.53,2.52-2.21,4.24-3.7s4.84-4.22,4.51-7.19C41.16,8.4,40.24,6.67,38.85,6.44Z"/><path class="cls-3" d="M42.34,8.34a4.79,4.79,0,0,0-2.9-2.78A3.92,3.92,0,0,0,34.8,7.09a14.21,14.21,0,0,0-7.92-2.18h0a14.23,14.23,0,0,0-8,2.21,3.92,3.92,0,0,0-4.66-1.56,4.79,4.79,0,0,0-2.9,2.78c-.82,2.13.31,4.24,1,5.44,1.1,2.06,2.6,3.31,4.95,5.28s4.3,3.23,4.18,4.66a1.46,1.46,0,0,1-.44,1c-.6.5-1.49,0-1.65.29s.84,1.75,1.84,1.62,1.47-1.6,1.46-2.65a4.55,4.55,0,0,0-.86-2.31l-.05-.08a25.59,25.59,0,0,0,3.54,4.65,2.28,2.28,0,0,0-.61,1.32,2.36,2.36,0,0,0,.55,1.71A20.53,20.53,0,0,1,26,34.75a20.63,20.63,0,0,1-.85,6A5.76,5.76,0,0,1,22,44.4H17.81v7.68h-1v2H36.88v-2h-1V44.4H31.81a5.76,5.76,0,0,1-3.19-3.62,20.74,20.74,0,0,1-.08-11.48,2.36,2.36,0,0,0,.55-1.71,2.28,2.28,0,0,0-.61-1.32,25.77,25.77,0,0,0,2.88-3.6A3,3,0,0,0,31,24c0,1,.51,2.52,1.46,2.65s2-1.27,1.84-1.62-1.05.21-1.65-.29a1.46,1.46,0,0,1-.44-1c-.12-1.43,2-2.82,4.18-4.66s3.85-3.22,5-5.28C42,12.58,43.16,10.47,42.34,8.34ZM16.9,17c-1.69-1.47-4.84-4.22-4.51-7.19.15-1.38,1.07-3.11,2.46-3.34a2.65,2.65,0,0,1,2.31.88,2,2,0,0,1,.62,1.57c-.16.88-1.21,1-1.21,1.66a1.37,1.37,0,0,0,1.36,1.1,1.22,1.22,0,0,0,.39-.14,25.74,25.74,0,0,0,2.21,7.8c.32.69.66,1.33,1,1.94C20.34,19.28,18.83,18.64,16.9,17Zm6.58-7.54-.73-.27-.63.46,0-.78-.63-.46.75-.22.24-.73.44.64h.77l-.47.62Zm4.35-.09-.91-.48L26,9.34l.18-1-.74-.72,1-.14.45-.92.46.92,1,.14-.73.72Zm3.87-.5,0,.78-.63-.46-.73.27.24-.74-.48-.62h.78l.43-.64.25.73.74.22ZM36.8,17c-1.72,1.49-3.11,2.17-4.24,3.7.23-.44.46-.89.68-1.36a25.71,25.71,0,0,0,2.21-7.77.76.76,0,0,0,.32.11,1.36,1.36,0,0,0,1.36-1.1c0-.65-1.05-.78-1.21-1.66a2,2,0,0,1,.62-1.57,2.65,2.65,0,0,1,2.31-.88c1.39.23,2.31,2,2.46,3.34C41.64,12.75,38.49,15.5,36.8,17Z"/><polygon class="cls-1" points="27.38 7.47 26.92 6.55 26.47 7.47 25.45 7.62 26.19 8.33 26.01 9.34 26.92 8.87 27.83 9.34 27.66 8.33 28.39 7.62 27.38 7.47"/><polygon class="cls-1" points="22.95 8.07 22.51 7.43 22.27 8.16 21.52 8.38 22.15 8.84 22.12 9.62 22.75 9.16 23.48 9.43 23.25 8.69 23.72 8.07 22.95 8.07"/><polygon class="cls-1" points="31.34 7.43 30.9 8.07 30.12 8.07 30.59 8.69 30.36 9.43 31.09 9.16 31.72 9.62 31.7 8.84 32.32 8.38 31.58 8.16 31.34 7.43"/></g></g></svg>