<?xml version="1.0" encoding="utf-8"?>
<!-- Generator: Adobe Illustrator 22.1.0, SVG Export Plug-In . SVG Version: 6.00 Build 0)  -->
<svg version="1.1" xmlns="http://www.w3.org/2000/svg" xmlns:xlink="http://www.w3.org/1999/xlink" x="0px" y="0px"
	 viewBox="0 0 571.5 235.6" style="enable-background:new 0 0 571.5 235.6;" xml:space="preserve">
<style type="text/css">
	.st0{fill:#58595B;stroke:#929497;stroke-miterlimit:10;}
	.st1{fill:#E50914;stroke:#AF2026;stroke-miterlimit:10;}
	.st2{fill:#A6A8AB;stroke:#929497;stroke-miterlimit:10;}
	.st3{fill:#D0D2D3;}
	.st4{fill:#AF2025;stroke:#231F20;stroke-miterlimit:10;}
	.st5{fill:#E50914;}
	.st6{fill:#E50914;stroke:#231F20;stroke-miterlimit:10;}
</style>
<g id="Layer_1">
	<title>footertop</title>
	<rect x="315.1" y="67.1" class="st0" width="25.7" height="14.1"/>
	<path class="st1" d="M295.6,26c-1.1-2.7-3.5-6-5.5-5.1c-4.2,2-5.9,23.3-2.5,26.7c2,2,6.4-1.7,8.2-7.6C296,39.6,298.2,32.2,295.6,26
		z"/>
	<path class="st1" d="M360.2,26c1.1-2.7,3.5-6,5.5-5.1c4.2,2,5.9,23.3,2.5,26.7c-2,2-6.4-1.7-8.2-7.6
		C359.8,39.6,357.6,32.2,360.2,26z"/>
	<path class="st2" d="M312.3,4.4c9.6-5.1,21.1-5.2,30.8-0.3c17.5,9.1,25.6,34.9,13.9,51.7c-12.7,18.3-43.7,19-57.1,1.5
		C287.1,40.8,294.7,14,312.3,4.4z"/>
	<path class="st3" d="M321,8.6c-7.2-1.3-13.1,4-14.2,5c-7.6,6.7-7.3,16.5-7.2,18.4c0.1,4.3,1.5,9.2,2.7,9.2s1.2-5.1,4.5-12.2
		c1.9-4,4.3-9.4,9.5-12.4c5.8-3.4,11.4-2,11.7-3.7C328.2,11.4,324.6,9.2,321,8.6z"/>
	<rect x="231" y="63.9" class="st0" width="25.7" height="14"/>
	<path class="st1" d="M263.1,27.1c1.1-2.7,3.5-6,5.5-5.1c4.2,2,5.9,23.3,2.5,26.7c-2,2-6.4-1.8-8.2-7.6
		C262.7,40.7,260.5,33.3,263.1,27.1z"/>
	<path class="st2" d="M229.6,5h19.2c9.1,0,16.4,7.4,16.4,16.4v28.3c0,9.1-7.4,16.4-16.4,16.4h-19.2c-9.1,0-16.4-7.4-16.4-16.4V21.5
		C213.2,12.4,220.6,5,229.6,5z"/>
	<path class="st1" d="M263,8.7c3.1,4.3,2.1,9.7,0.7,17.5c-1.8,9.8-8,31.8-16.9,31.8c-6.9,0-11.9-12.9-18.3-29.3
		c-5.2-13.3-4-16.4-3.5-17.5C230.4-0.4,255-2.6,263,8.7z"/>
	<path class="st1" d="M237,3.3c-8.6-3.5-21.7-2.5-27.5,5c-11.6,15.1,5.6,46.3-1.5,50C202.9,61,192.1,45,189,47
		c-4,2.6,3.2,35,24,39.5c8.3,1.8,15.3-1.5,18-2.8c18.5-8.7,22.3-31.4,23-36.5c0.5-4,3.9-22.9-7.4-36.5C244.1,7.5,240.8,4.9,237,3.3z
		"/>
	<path class="st4" d="M60,113c-4.9-21,0.2-30.6,4-35c10.3-12.2,27.2-5,76-5c42.1,0,54.3-5.3,64.4,4.7c13,12.9,8.7,37.3,5.6,49.8
		L60,113z"/>
	<path class="st4" d="M514.2,113c4.8-21.1-0.2-30.6-4-35.1c-10.3-12.1-27.2-4.9-76-4.9c-42.1,0-54.3-5.3-64.4,4.7
		c-13,12.9-8.7,37.3-5.6,49.8L514.2,113z"/>
	<path class="st4" d="M214,130c-11.5-32.7-3.2-45.1,0.2-49c9.8-11.3,24.6-5,76-4.9c42.1,0,54.3-5.3,64.4,4.7
		c13,12.9,8.7,37.3,5.6,49.8L214,130z"/>
	<path class="st5" d="M0,235.6c0-30,0-53.1,0-71.9c0-17.3,6-29.5,12.5-38.2c34.8-46.2,118.9-1.1,286-4c151.4-2.6,226.9-42,260,0
		c8.6,11,12.7,24.7,13.1,39.5c0.5,23,0,56,0,74.6L0,235.6z"/>
</g>
<g id="Layer_2">
	<path class="st6" d="M-0.4,163.7c0-17.3,6.7-29.5,13.3-38.2c34.8-46.2,118.9-1.1,286-4c151.4-2.6,226.9-42,260,0
		c8.6,11,12.9,24.7,13.2,39.5"/>
</g>
</svg>
