<svg xmlns="http://www.w3.org/2000/svg" viewBox="0 0 571.54 235.55"><defs><style>.cls-1{fill:#58595b;}.cls-1,.cls-3{stroke:#929497;}.cls-1,.cls-2,.cls-3,.cls-5,.cls-6{stroke-miterlimit:10;}.cls-2,.cls-6{fill:#e50914;}.cls-2{stroke:#af2026;}.cls-3{fill:#a6a8ab;}.cls-4{fill:#d0d2d3;}.cls-5{fill:#af2025;}.cls-5,.cls-6{stroke:#231f20;}</style></defs><title>footertop</title><g id="Layer_2" data-name="Layer 2"><g id="Layer_1-2" data-name="Layer 1"><g id="robotfiu"><rect class="cls-1" x="315.14" y="67.14" width="25.72" height="14.05"/><path class="cls-2" d="M295.64,26.05c-1.11-2.69-3.48-6-5.46-5.08-4.24,2-5.91,23.25-2.49,26.68,2.05,2.05,6.39-1.74,8.2-7.62C296,39.6,298.2,32.24,295.64,26.05Z"/><path class="cls-2" d="M360.2,26.05c1.11-2.69,3.48-6,5.46-5.08,4.24,2,5.92,23.25,2.49,26.68-2,2.05-6.39-1.74-8.2-7.62C359.82,39.6,357.64,32.24,360.2,26.05Z"/><path class="cls-3" d="M312.29,4.4a33.34,33.34,0,0,1,30.81-.25C360.57,13.28,368.69,39,357,55.84c-12.66,18.27-43.69,19-57.15,1.49C287.14,40.8,294.73,14,312.29,4.4Z"/><path class="cls-4" d="M321,8.63c-7.16-1.25-13.11,4-14.17,5-7.57,6.72-7.26,16.51-7.2,18.38.13,4.34,1.47,9.19,2.73,9.2s1.23-5.12,4.47-12.18c1.85-4,4.3-9.35,9.45-12.42,5.76-3.44,11.4-2,11.68-3.73C328.22,11.41,324.56,9.24,321,8.63Z"/></g><g id="robotlany"><rect class="cls-1" x="230.98" y="63.88" width="25.72" height="14.05"/><path class="cls-2" d="M263.08,27.13c1.11-2.7,3.48-6,5.47-5.09,4.23,2,5.91,23.25,2.48,26.69-2,2.05-6.39-1.75-8.2-7.63C262.7,40.68,260.52,33.32,263.08,27.13Z"/><rect class="cls-3" x="213.22" y="5.04" width="52" height="61.09" rx="16.42"/><path class="cls-2" d="M263,8.71c3.07,4.34,2.1,9.66.67,17.5C261.85,36,255.69,58,246.77,58c-6.86,0-11.91-12.93-18.3-29.32-5.19-13.31-4-16.38-3.5-17.5C230.38-.39,255-2.57,263,8.71Z"/><path class="cls-2" d="M237,3.29c-8.57-3.46-21.73-2.51-27.5,5-11.63,15.15,5.59,46.26-1.5,50C202.87,61,192.08,45,189,47,185,49.62,192.18,82,213,86.54c8.26,1.83,15.3-1.48,18-2.75,18.51-8.69,22.34-31.37,23-36.5.51-4,3.88-22.94-7.37-36.48A24.08,24.08,0,0,0,237,3.29Z"/></g><g id="couch"><path class="cls-5" d="M60,113C55.13,92,60.17,82.43,64,78,74.3,65.81,91.19,73,140,73c42.1,0,54.27-5.34,64.4,4.71,13,12.89,8.72,37.32,5.6,49.79Z"/><path class="cls-5" d="M514.23,113c4.84-21.05-.2-30.61-4-35.07C499.9,65.81,483,73,434.23,73c-42.1,0-54.27-5.34-64.4,4.71-13,12.89-8.72,37.32-5.6,49.79Z"/><path class="cls-5" d="M214,130c-11.52-32.73-3.23-45.12.16-49,9.83-11.33,24.61-5,76-4.93,42.1,0,54.27-5.35,64.4,4.7,13,12.89,8.72,37.33,5.6,49.8Z"/><path class="cls-6" d="M16,235c-23.37-60.67-16.65-92-3.5-109.5,34.75-46.15,118.89-1.12,286-4,151.39-2.6,226.87-42,260,0,22,27.92,11.17,73.82-2.5,110Z"/></g></g></g></svg>