<svg xmlns="http://www.w3.org/2000/svg" viewBox="0 0 53.76 53.94"><defs><style>.cls-1{fill:#fff;}.cls-1,.cls-3{stroke:#fff;stroke-miterlimit:10;stroke-width:2px;}.cls-2{fill:#e50914;}.cls-3{fill:#e52027;}.cls-4{fill:none;}</style></defs><title>team_2</title><g id="Layer_2" data-name="Layer 2"><g id="Layer_1-2" data-name="Layer 1"><path class="cls-1" d="M9.7,26.47a4.4,4.4,0,1,1,5.12.17,16.61,16.61,0,0,1,3.24,4.28,23.75,23.75,0,0,1,5.3-8.15,6.66,6.66,0,1,1,6.74.2,25.12,25.12,0,0,1,5.4,8.09,14.75,14.75,0,0,1,3.39-4.47,4.39,4.39,0,1,1,4.77.16c2.55,2.14,5.15,7,6.31,12a25.88,25.88,0,1,0-46.28-.2C4.74,33.53,7.21,28.61,9.7,26.47Z"/><path class="cls-2" d="M16.28,50.67c-2.3-5.35-.93-13.41,1.78-19.75a16.61,16.61,0,0,0-3.24-4.28,4.45,4.45,0,0,1-2.45.74,4.37,4.37,0,0,1-2.67-.91c-2.49,2.14-5,7.06-6,12.08A26,26,0,0,0,16.28,50.67Z"/><path class="cls-2" d="M43.66,26.75a4.5,4.5,0,0,1-2.27.63,4.32,4.32,0,0,1-2.5-.79,14.75,14.75,0,0,0-3.39,4.47c2.84,6.31,4.34,14.29,2,19.59A26,26,0,0,0,50,38.75C48.81,33.76,46.21,28.89,43.66,26.75Z"/><path class="cls-3" d="M34.31,50.61c-3.79-4.42-2-13.63,1.19-19.55A25.12,25.12,0,0,0,30.1,23a6.71,6.71,0,0,1-3.21.82,6.63,6.63,0,0,1-3.53-1,23.75,23.75,0,0,0-5.3,8.15c3.23,5.81,5.18,14.66,1.61,19.14a7.13,7.13,0,0,1-1.47,1.38,25.91,25.91,0,0,0,17.09.1A7.16,7.16,0,0,1,34.31,50.61Z"/><path class="cls-3" d="M19.67,50.06c3.57-4.48,1.62-13.33-1.61-19.14-2.71,6.34-4.08,14.4-1.78,19.75.63.28,1.27.54,1.92.77A7.13,7.13,0,0,0,19.67,50.06Z"/><path class="cls-3" d="M35.5,31.06c-3.16,5.92-5,15.13-1.19,19.55a7.16,7.16,0,0,0,1,.93c.77-.27,1.51-.56,2.24-.89C39.84,45.35,38.34,37.37,35.5,31.06Z"/><path class="cls-2" d="M26.89,9.9a6.67,6.67,0,1,0,6.67,6.67A6.67,6.67,0,0,0,26.89,9.9Z"/><path class="cls-2" d="M12.37,18a4.41,4.41,0,1,0,4.41,4.41A4.4,4.4,0,0,0,12.37,18Z"/><path class="cls-2" d="M41.39,18a4.41,4.41,0,1,0,4.4,4.41A4.4,4.4,0,0,0,41.39,18Z"/><circle class="cls-4" cx="26.95" cy="26.43" r="26.43"/><path class="cls-2" d="M35.57,31.54a25.12,25.12,0,0,0-5.4-8.09,6.71,6.71,0,0,1-3.21.82,6.63,6.63,0,0,1-3.53-1,23.75,23.75,0,0,0-5.3,8.15c-2.71,6.33-4.08,14.4-1.78,19.75.63.28,1.27.54,1.92.77A25.83,25.83,0,0,0,35.36,52c.76-.26,1.51-.55,2.23-.88C39.9,45.82,38.41,37.85,35.57,31.54Z"/></g></g></svg>